<?xml version="1.0" standalone="no"?>
<!DOCTYPE svg PUBLIC "-//W3C//DTD SVG 20010904//EN"
 "http://www.w3.org/TR/2001/REC-SVG-20010904/DTD/svg10.dtd">
<svg version="1.0" xmlns="http://www.w3.org/2000/svg"
 width="512.000000pt" height="512.000000pt" viewBox="0 0 512.000000 512.000000"
 preserveAspectRatio="xMidYMid meet">
<metadata>
Created by potrace 1.14, written by Peter Selinger 2001-2017
</metadata>
<g transform="translate(0.000000,512.000000) scale(0.100000,-0.100000)"
fill="#000000" stroke="none">
<path d="M975 4228 c-9 -48 -7 -51 33 -65 85 -29 151 -98 178 -189 10 -34 394
-3031 394 -3078 0 -4 43 -5 97 -4 l96 3 946 1456 c520 802 972 1491 1004 1533
95 122 212 215 338 265 72 29 79 36 92 91 l6 25 -478 0 -479 0 -9 -42 c-6 -24
-8 -45 -5 -48 3 -3 24 -5 46 -5 66 0 173 -27 227 -56 72 -40 94 -81 93 -174 0
-85 -33 -178 -104 -301 -41 -68 -1305 -2007 -1318 -2021 -4 -4 -66 497 -136
1114 -100 868 -127 1138 -123 1195 7 92 36 156 86 189 39 25 162 54 234 54 49
0 62 7 71 38 18 63 83 57 -634 57 l-649 0 -6 -37z"/>
<path d="M3529 1515 c-117 -43 -203 -118 -252 -222 -27 -58 -32 -81 -35 -160
-3 -81 -1 -99 21 -146 44 -97 125 -140 262 -141 84 -1 96 2 168 36 99 48 177
120 219 206 44 89 51 203 18 280 -27 63 -101 133 -158 150 -52 16 -197 14
-243 -3z"/>
</g>
</svg>
